<svg width="60" height="44" viewBox="0 0 60 44" fill="none" xmlns="http://www.w3.org/2000/svg">
<path d="M33.7272 25.7172C38.7556 26.7793 43.2426 25.7641 47.6001 23.8132C49.4682 22.9689 51.1409 21.8139 52.5489 20.3875C55.8539 17.0726 57.9552 13.0304 58.9575 8.47662C59.5521 5.75184 59.1695 3.18018 57.0082 1.12656C56.7 0.843361 56.3839 0.5463 56.0301 0.344136C55.1229 -0.185033 54.1178 0.11241 53.636 1.10274C53.4179 1.55739 53.3836 2.10918 53.2484 2.64502C53.7932 3.60097 55.2392 3.40096 55.5225 4.67108C55.7941 5.85614 55.8204 6.9974 55.4967 8.13626C54.3168 12.3141 52.4313 16.1231 48.9807 18.8603C45.53 21.5975 41.4464 22.6765 37.0754 22.6713C36.8756 22.675 36.676 22.5502 36.4783 22.4609C36.3973 22.4154 36.336 22.3401 36.178 22.1916C36.5034 21.3455 36.8406 20.4558 37.1562 19.5602C37.9282 17.34 38.4037 15.0502 38.2246 12.6746C37.8897 8.22205 35.2822 5.44994 30.8486 4.81965C28.8117 4.53043 26.812 4.66057 24.8433 5.2318C22.2198 5.97433 20.3704 7.6889 19.3113 10.1461C18.163 12.801 18.5081 15.339 20.416 17.5921C22.0869 19.5581 24.1064 21.1052 26.3459 22.3618C27.3697 22.9347 28.3718 23.5015 29.5795 24.1715C27.8001 26.9106 25.0748 28.4086 22.6419 30.162C19.7082 32.2926 14.4748 33.8984 10.5446 34.1191C10.7061 33.0177 11.597 32.3265 11.9402 31.4151C12.2637 30.5334 12.5713 29.6239 12.7069 28.7024C12.8047 28.0043 12.2652 27.5409 11.591 27.3561C10.9306 27.1635 10.3075 27.2616 9.91315 27.8901C9.45936 28.6075 9.11627 29.3904 8.61109 30.082C6.8122 32.5937 4.93033 35.0242 2.36487 36.8349C2.10357 37.0205 1.84229 37.2061 1.61853 37.4253C1.0423 37.9923 0.794227 38.6843 1.05043 39.4559C1.31452 40.2415 1.99055 40.5904 2.79945 40.6249C4.38954 40.7099 5.98767 40.6802 7.57375 40.8225C10.0142 41.0469 12.4286 41.4513 14.6226 42.6604C14.8954 42.817 15.2018 42.936 15.5063 43.0195C16.5383 43.349 17.3475 43.1265 17.744 42.4051C18.1543 41.6757 18.0406 40.7678 17.3175 40.0786C16.7901 39.5716 16.1339 39.1931 15.5054 38.7987C15.0093 38.4757 14.4796 38.1903 13.5506 37.6552C17.6898 36.416 21.5181 35.5009 24.7803 33.2382C27.9811 31.0288 30.9349 28.6114 33.7272 25.7172ZM32.2212 21.3997C29.3606 20.2768 26.9155 19.0456 24.8152 17.1958C24.1099 16.57 23.4085 15.8868 22.8596 15.1167C21.6156 13.3846 21.7124 11.8796 22.9743 10.1327C23.8243 8.95092 24.9901 8.19479 26.3867 8.0046C27.6349 7.84391 28.9444 7.75845 30.1744 7.92012C33.2099 8.31932 34.7012 10.0023 34.7589 13.0344C34.8326 15.9657 34.0085 18.6744 32.2212 21.3997Z" fill="#D4B591"/>
</svg>
