<svg width="152" height="94" viewBox="0 0 152 94" fill="none" xmlns="http://www.w3.org/2000/svg">
<path d="M37.1835 38.8711V60.5263L29.875 68.0375H41.8794C43.9514 68.0375 45.6406 66.3595 45.6406 64.2762V41.3598L37.1835 38.8711Z" fill="#E30C30"/>
<path d="M86.4967 78.1639C86.9809 79.4364 87.2287 80.7877 87.2287 82.1503C87.2287 88.3664 82.1612 93.4452 75.945 93.4452C69.7288 93.4452 64.6613 88.3777 64.6613 82.1503C64.6613 80.7877 64.9203 79.4364 65.3933 78.1639H64.1208C62.578 78.1639 61.1253 77.1954 60.5848 75.6526L47.7921 39.5044L24.0762 31.6328H51.9475C53.7831 31.6328 55.461 32.4211 56.0466 34.0877L66.4181 70.5738H85.4607L95.8322 34.0877C96.4178 32.4211 98.1069 31.6328 99.9312 31.6328H127.803L104.087 39.5044L91.2939 75.6526C90.7534 77.1954 89.3007 78.1526 87.7579 78.1639H86.4854H86.4967ZM71.936 78.1639C70.8662 79.2449 70.2919 80.63 70.2919 82.1503C70.2919 85.2922 72.8144 87.8034 75.945 87.8034C79.0756 87.8034 81.5981 85.2922 81.5981 82.1503C81.5981 80.63 81.0238 79.2449 79.954 78.1639H71.936Z" fill="#E30C30"/>
<path d="M0 0C11.7792 26.3285 39.2789 25.7993 75.9451 25.7993C112.611 25.7993 140.1 26.3285 151.89 0C132.994 18.2881 109.053 17.162 75.9451 17.162C42.8374 17.162 18.8962 18.2881 0 0Z" fill="#E30C30"/>
<path d="M114.694 38.8711V60.5263L122.003 68.0375H109.999C107.926 68.0375 106.237 66.3595 106.237 64.2762V41.3598L114.694 38.8711Z" fill="#E30C30"/>
</svg>
