<svg width="44" height="42" viewBox="0 0 44 42" fill="none" xmlns="http://www.w3.org/2000/svg">
<rect width="44" height="42" rx="21" fill="#D63439"/>
<path d="M33 28.1465C33 28.5245 32.9159 28.913 32.7371 29.291C32.5583 29.669 32.327 30.026 32.022 30.362C31.5068 30.929 30.9389 31.3385 30.2974 31.601C29.6665 31.8635 28.983 32 28.2469 32C27.1743 32 26.028 31.748 24.8187 31.2335C23.6094 30.719 22.4001 30.026 21.2013 29.1545C19.992 28.2725 18.8458 27.296 17.7521 26.2145C16.669 25.1225 15.691 23.978 14.8182 22.781C13.9559 21.584 13.2619 20.387 12.7571 19.2005C12.2524 18.0035 12 16.859 12 15.767C12 15.053 12.1262 14.3705 12.3786 13.7405C12.6309 13.1 13.0305 12.512 13.5879 11.987C14.2609 11.3255 14.997 11 15.7752 11C16.0696 11 16.364 11.063 16.6269 11.189C16.9004 11.315 17.1422 11.504 17.3315 11.777L19.7712 15.2105C19.9604 15.473 20.0971 15.7145 20.1918 15.9455C20.2864 16.166 20.339 16.3865 20.339 16.586C20.339 16.838 20.2654 17.09 20.1182 17.3315C19.9815 17.573 19.7817 17.825 19.5293 18.077L18.7301 18.9065C18.6144 19.022 18.5618 19.1585 18.5618 19.3265C18.5618 19.4105 18.5724 19.484 18.5934 19.568C18.6249 19.652 18.6565 19.715 18.6775 19.778C18.8668 20.1245 19.1928 20.576 19.6555 21.122C20.1287 21.668 20.6335 22.2245 21.1803 22.781C21.7481 23.3375 22.2949 23.852 22.8523 24.3245C23.3991 24.7865 23.8513 25.1015 24.2088 25.2905C24.2614 25.3115 24.3245 25.343 24.3981 25.3745C24.4822 25.406 24.5664 25.4165 24.661 25.4165C24.8398 25.4165 24.9765 25.3535 25.0921 25.238L25.8913 24.4505C26.1542 24.188 26.4066 23.9885 26.6485 23.8625C26.8903 23.7155 27.1322 23.642 27.3951 23.642C27.5949 23.642 27.8052 23.684 28.0366 23.7785C28.2679 23.873 28.5098 24.0095 28.7727 24.188L32.2534 26.6555C32.5268 26.8445 32.7161 27.065 32.8317 27.3275C32.9369 27.59 33 27.8525 33 28.1465Z" fill="#303030"/>
</svg>
