<svg width="86" height="12" viewBox="0 0 86 12" fill="none" xmlns="http://www.w3.org/2000/svg">
<path fill-rule="evenodd" clip-rule="evenodd" d="M83.4168 0.339844L77.4098 8.09745V0.339844H74.5605C74.9752 0.910413 75.1914 1.85664 75.1914 2.45556V9.66386C75.1914 10.2628 74.9752 11.209 74.5605 11.7796H77.1511L83.1581 4.02905V11.7796H86.0003C85.5856 11.209 85.3695 10.2628 85.3695 9.66386V2.45556C85.3695 1.85664 85.5856 0.910413 86.0003 0.339844H83.4168Z" fill="#2B2B2B"/>
<path fill-rule="evenodd" clip-rule="evenodd" d="M63.153 0.339844C63.5676 0.910413 63.7838 1.85664 63.7838 2.45556V9.66386C63.7838 10.2628 63.5676 11.209 63.153 11.7796H66.6331C66.2184 11.209 66.0023 10.2628 66.0023 9.66386V7.9238H68.5787C69.6844 7.9238 70.6731 7.60131 71.4776 6.83228C72.2466 6.09515 72.6187 5.19499 72.6187 4.13182C72.6187 3.06865 72.2431 2.1685 71.4705 1.43491C70.666 0.669427 69.6808 0.343388 68.5751 0.343388H63.1494L63.153 0.339844ZM68.4972 2.30671C69.0217 2.30671 69.4824 2.47327 69.858 2.8383C70.223 3.19269 70.4073 3.62859 70.4073 4.13891C70.4073 4.64923 70.2266 5.08513 69.858 5.43598C69.4788 5.79746 69.0181 5.96048 68.4972 5.96048H66.0058V2.31026H68.4972V2.30671Z" fill="#2B2B2B"/>
<path fill-rule="evenodd" clip-rule="evenodd" d="M49.1682 0.339481H40.5459C40.9605 0.91005 41.1767 1.85627 41.1767 2.45519V9.6635C41.1767 10.2624 40.9605 11.2086 40.5459 11.7792H46.1417C47.1978 11.7792 48.1404 11.4673 48.913 10.7373C49.6324 10.0569 50.0152 9.23114 50.0152 8.23885C50.0152 7.24655 49.636 6.42082 48.913 5.74039C48.1404 5.01389 47.1978 4.69848 46.1417 4.69848H43.3952V2.30281H48.5445C48.5976 1.70389 48.7854 0.863979 49.1682 0.335938V0.339481ZM43.3952 9.81943V6.66181H46.0602C46.5315 6.66181 46.9497 6.81065 47.2935 7.13315C47.6124 7.43438 47.8002 7.7994 47.8002 8.24239C47.8002 8.68538 47.6159 9.05394 47.2935 9.35163C46.9497 9.67413 46.5315 9.81943 46.0602 9.81943H43.3952Z" fill="#2B2B2B"/>
<path fill-rule="evenodd" clip-rule="evenodd" d="M29.3331 2.30671H32.6962V9.66386C32.6962 10.2628 32.4801 11.209 32.0654 11.7796H35.542C35.1274 11.209 34.9112 10.2628 34.9112 9.66386V2.30671H38.2673C38.3204 1.70779 38.5082 0.867886 38.891 0.339844H28.7129C29.0921 0.864342 29.2835 1.70779 29.3366 2.30671H29.3331Z" fill="#2B2B2B"/>
<path fill-rule="evenodd" clip-rule="evenodd" d="M24.4705 0.339844L18.4636 8.09745V0.339844H15.6143C16.0289 0.910413 16.2451 1.85664 16.2451 2.45556V9.66386C16.2451 10.2628 16.0289 11.209 15.6143 11.7796H18.2049L24.2118 4.02905V11.7796H27.054C26.6394 11.209 26.4232 10.2628 26.4232 9.66386V2.45556C26.4232 1.85664 26.6394 0.910413 27.054 0.339844H24.4705Z" fill="#2B2B2B"/>
<path fill-rule="evenodd" clip-rule="evenodd" d="M2.67565 0.339844H0C0.414637 0.910413 0.630815 1.85664 0.630815 2.45556V9.66386C0.630815 10.2628 0.414637 11.209 0 11.7796H2.8493V3.70301L6.76886 8.66802L10.6955 3.66757V11.7796H13.5377C13.1231 11.209 12.9069 10.2628 12.9069 9.66386V2.45556C12.9069 1.85664 13.1231 0.910413 13.5377 0.339844H10.9046L6.76886 5.54939L2.67565 0.339844Z" fill="#2B2B2B"/>
<path fill-rule="evenodd" clip-rule="evenodd" d="M61.0761 0.339844H51.9541C52.3687 0.910413 52.5849 1.85664 52.5849 2.45556V9.66386C52.5849 10.2628 52.3687 11.209 51.9541 11.7796H61.2462C60.867 11.2551 60.6757 10.4152 60.6225 9.81979H54.8034V6.91733H59.577V4.95755H54.8034V2.30671H60.4524C60.5055 1.70779 60.6969 0.867886 61.0761 0.339844Z" fill="#2B2B2B"/>
</svg>
